<svg aria-hidden="true" style="position: absolute; width: 0; height: 0; overflow: hidden;" version="1.1" xmlns="http://www.w3.org/2000/svg" xmlns:xlink="http://www.w3.org/1999/xlink">
<defs>
<symbol id="icon-Group-2137" viewBox="0 0 44 32">
<path fill="#e2e2e2" style="fill: var(--color1, #e2e2e2)" d="M4.039 2.105c0 1.163-0.904 2.105-2.019 2.105s-2.019-0.943-2.019-2.105c0-1.163 0.904-2.105 2.019-2.105s2.019 0.943 2.019 2.105z"></path>
<path fill="#e2e2e2" style="fill: var(--color1, #e2e2e2)" d="M4.039 20.541c0 1.163-0.904 2.105-2.019 2.105s-2.019-0.943-2.019-2.105c0-1.163 0.904-2.105 2.019-2.105s2.019 0.943 2.019 2.105z"></path>
<path fill="#e2e2e2" style="fill: var(--color1, #e2e2e2)" d="M19.894 2.105c0 1.163-0.904 2.105-2.019 2.105s-2.019-0.943-2.019-2.105c0-1.163 0.904-2.105 2.019-2.105s2.019 0.943 2.019 2.105z"></path>
<path fill="#e2e2e2" style="fill: var(--color1, #e2e2e2)" d="M19.894 20.541c0 1.163-0.904 2.105-2.019 2.105s-2.019-0.943-2.019-2.105c0-1.163 0.904-2.105 2.019-2.105s2.019 0.943 2.019 2.105z"></path>
<path fill="#e2e2e2" style="fill: var(--color1, #e2e2e2)" d="M35.749 2.105c0 1.163-0.904 2.105-2.019 2.105s-2.019-0.943-2.019-2.105c0-1.163 0.904-2.105 2.019-2.105s2.019 0.943 2.019 2.105z"></path>
<path fill="#e2e2e2" style="fill: var(--color1, #e2e2e2)" d="M35.749 20.541c0 1.163-0.904 2.105-2.019 2.105s-2.019-0.943-2.019-2.105c0-1.163 0.904-2.105 2.019-2.105s2.019 0.943 2.019 2.105z"></path>
<path fill="#e2e2e2" style="fill: var(--color1, #e2e2e2)" d="M4.039 11.323c0 1.163-0.904 2.105-2.019 2.105s-2.019-0.943-2.019-2.105c0-1.163 0.904-2.105 2.019-2.105s2.019 0.943 2.019 2.105z"></path>
<path fill="#e2e2e2" style="fill: var(--color1, #e2e2e2)" d="M4.039 29.758c0 1.163-0.904 2.105-2.019 2.105s-2.019-0.943-2.019-2.105c0-1.163 0.904-2.105 2.019-2.105s2.019 0.943 2.019 2.105z"></path>
<path fill="#e2e2e2" style="fill: var(--color1, #e2e2e2)" d="M19.894 11.323c0 1.163-0.904 2.105-2.019 2.105s-2.019-0.943-2.019-2.105c0-1.163 0.904-2.105 2.019-2.105s2.019 0.943 2.019 2.105z"></path>
<path fill="#e2e2e2" style="fill: var(--color1, #e2e2e2)" d="M19.894 29.758c0 1.163-0.904 2.105-2.019 2.105s-2.019-0.943-2.019-2.105c0-1.163 0.904-2.105 2.019-2.105s2.019 0.943 2.019 2.105z"></path>
<path fill="#e2e2e2" style="fill: var(--color1, #e2e2e2)" d="M35.749 11.323c0 1.163-0.904 2.105-2.019 2.105s-2.019-0.943-2.019-2.105c0-1.163 0.904-2.105 2.019-2.105s2.019 0.943 2.019 2.105z"></path>
<path fill="#e2e2e2" style="fill: var(--color1, #e2e2e2)" d="M35.749 29.758c0 1.163-0.904 2.105-2.019 2.105s-2.019-0.943-2.019-2.105c0-1.163 0.904-2.105 2.019-2.105s2.019 0.943 2.019 2.105z"></path>
<path fill="#e2e2e2" style="fill: var(--color1, #e2e2e2)" d="M11.966 2.105c0 1.163-0.904 2.105-2.019 2.105s-2.019-0.943-2.019-2.105c0-1.163 0.904-2.105 2.019-2.105s2.019 0.943 2.019 2.105z"></path>
<path fill="#e2e2e2" style="fill: var(--color1, #e2e2e2)" d="M11.966 20.541c0 1.163-0.904 2.105-2.019 2.105s-2.019-0.943-2.019-2.105c0-1.163 0.904-2.105 2.019-2.105s2.019 0.943 2.019 2.105z"></path>
<path fill="#e2e2e2" style="fill: var(--color1, #e2e2e2)" d="M27.821 2.105c0 1.163-0.904 2.105-2.019 2.105s-2.019-0.943-2.019-2.105c0-1.163 0.904-2.105 2.019-2.105s2.019 0.943 2.019 2.105z"></path>
<path fill="#e2e2e2" style="fill: var(--color1, #e2e2e2)" d="M27.821 20.541c0 1.163-0.904 2.105-2.019 2.105s-2.019-0.943-2.019-2.105c0-1.163 0.904-2.105 2.019-2.105s2.019 0.943 2.019 2.105z"></path>
<path fill="#e2e2e2" style="fill: var(--color1, #e2e2e2)" d="M43.676 2.105c0 1.163-0.904 2.105-2.019 2.105s-2.019-0.943-2.019-2.105c0-1.163 0.904-2.105 2.019-2.105s2.019 0.943 2.019 2.105z"></path>
<path fill="#e2e2e2" style="fill: var(--color1, #e2e2e2)" d="M43.676 20.541c0 1.163-0.904 2.105-2.019 2.105s-2.019-0.943-2.019-2.105c0-1.163 0.904-2.105 2.019-2.105s2.019 0.943 2.019 2.105z"></path>
<path fill="#e2e2e2" style="fill: var(--color1, #e2e2e2)" d="M11.966 11.323c0 1.163-0.904 2.105-2.019 2.105s-2.019-0.943-2.019-2.105c0-1.163 0.904-2.105 2.019-2.105s2.019 0.943 2.019 2.105z"></path>
<path fill="#e2e2e2" style="fill: var(--color1, #e2e2e2)" d="M11.966 29.758c0 1.163-0.904 2.105-2.019 2.105s-2.019-0.943-2.019-2.105c0-1.163 0.904-2.105 2.019-2.105s2.019 0.943 2.019 2.105z"></path>
<path fill="#e2e2e2" style="fill: var(--color1, #e2e2e2)" d="M27.821 11.323c0 1.163-0.904 2.105-2.019 2.105s-2.019-0.943-2.019-2.105c0-1.163 0.904-2.105 2.019-2.105s2.019 0.943 2.019 2.105z"></path>
<path fill="#e2e2e2" style="fill: var(--color1, #e2e2e2)" d="M27.821 29.758c0 1.163-0.904 2.105-2.019 2.105s-2.019-0.943-2.019-2.105c0-1.163 0.904-2.105 2.019-2.105s2.019 0.943 2.019 2.105z"></path>
<path fill="#e2e2e2" style="fill: var(--color1, #e2e2e2)" d="M43.676 11.323c0 1.163-0.904 2.105-2.019 2.105s-2.019-0.943-2.019-2.105c0-1.163 0.904-2.105 2.019-2.105s2.019 0.943 2.019 2.105z"></path>
<path fill="#e2e2e2" style="fill: var(--color1, #e2e2e2)" d="M43.676 29.758c0 1.163-0.904 2.105-2.019 2.105s-2.019-0.943-2.019-2.105c0-1.163 0.904-2.105 2.019-2.105s2.019 0.943 2.019 2.105z"></path>
</symbol>
<symbol id="icon-Group-2" viewBox="0 0 35 32">
<path fill="#39435a" style="fill: var(--color2, #39435a)" d="M21.29 1.199l7.853 13.602c0.428 0.742 0.428 1.656 0 2.398l-7.853 13.602c-0.428 0.742-1.22 1.199-2.076 1.199h4.602c0.857 0 1.648-0.457 2.076-1.199l7.853-13.602c0.428-0.742 0.428-1.656 0-2.398l-7.853-13.602c-0.428-0.742-1.22-1.199-2.076-1.199h-4.602c0.857 0 1.648 0.457 2.076 1.199z"></path>
<path fill="#2c374c" style="fill: var(--color3, #2c374c)" d="M21.29 1.199l0.35 0.606c0.595 0.009 1.213 0.058 1.843 0.15 1.255 0.185 2.411 0.521 3.399 0.959l-0.99-1.715c-0.428-0.742-1.22-1.199-2.076-1.199h-4.602c0.857 0 1.648 0.457 2.076 1.199z"></path>
<path fill="#39435a" style="fill: var(--color2, #39435a)" d="M12.431 1.199l7.853 13.602c0.428 0.742 0.428 1.656 0 2.398l-7.853 13.602c-0.428 0.742-1.22 1.199-2.076 1.199h4.602c0.857 0 1.648-0.457 2.076-1.199l7.853-13.602c0.428-0.742 0.428-1.656 0-2.398l-7.853-13.602c-0.428-0.742-1.22-1.199-2.077-1.199h-4.602c0.857 0 1.648 0.457 2.076 1.199z"></path>
<path fill="#435f94" style="fill: var(--color4, #435f94)" d="M12.776 30.801l-7.853-13.602c-0.428-0.742-0.428-1.656 0-2.398l7.853-13.602c0.428-0.742 1.22-1.199 2.076-1.199h-4.602c-0.857 0-1.648 0.457-2.077 1.199l-7.853 13.602c-0.428 0.742-0.428 1.656 0 2.398l7.853 13.602c0.428 0.742 1.22 1.199 2.077 1.199h4.602c-0.857 0-1.648-0.457-2.076-1.199z"></path>
<path fill="#377dff" style="fill: var(--color5, #377dff)" d="M17.314 30.801l-7.853-13.602c-0.428-0.742-0.428-1.656 0-2.398l7.853-13.602c0.428-0.742 1.22-1.199 2.076-1.199h-4.602c-0.857 0-1.648 0.457-2.076 1.199l-7.853 13.602c-0.428 0.742-0.428 1.656 0 2.398l7.853 13.602c0.428 0.742 1.22 1.199 2.076 1.199h4.602c-0.857-0-1.648-0.457-2.076-1.199z"></path>
<path fill="#37dbff" style="fill: var(--color6, #37dbff)" d="M21.939 30.801l-7.853-13.602c-0.428-0.742-0.428-1.656 0-2.398l7.853-13.602c0.428-0.742 1.22-1.199 2.076-1.199h-4.602c-0.857 0-1.648 0.457-2.076 1.199l-7.853 13.602c-0.428 0.742-0.428 1.656 0 2.398l7.853 13.602c0.428 0.742 1.22 1.199 2.076 1.199h4.602c-0.857-0-1.648-0.457-2.076-1.199z"></path>
</symbol>
<symbol id="icon-play-circle" viewBox="0 0 32 32">
<path fill="none" stroke="#e2e2e2" style="stroke: var(--color1, #e2e2e2)" stroke-linejoin="round" stroke-linecap="round" stroke-miterlimit="4" stroke-width="2" d="M16 29.333c7.364 0 13.333-5.97 13.333-13.333s-5.97-13.333-13.333-13.333c-7.364 0-13.333 5.97-13.333 13.333s5.97 13.333 13.333 13.333z"></path>
<path fill="none" stroke="#e2e2e2" style="stroke: var(--color1, #e2e2e2)" stroke-linejoin="round" stroke-linecap="round" stroke-miterlimit="4" stroke-width="2" d="M13.333 10.667l8 5.333-8 5.333v-10.667z"></path>
</symbol>
<symbol id="icon-Group-2171" viewBox="0 0 38 32">
<path fill="#ec1aff" style="fill: var(--color7, #ec1aff)" d="M1.845 9.594c0.136 0.464-0.112 0.944-0.554 1.074s-0.91-0.142-1.046-0.605c-0.136-0.464 0.112-0.944 0.554-1.074s0.91 0.142 1.046 0.605z"></path>
<path fill="#ec1aff" style="fill: var(--color7, #ec1aff)" d="M5.946 23.601c0.136 0.464-0.112 0.944-0.554 1.074s-0.91-0.142-1.046-0.605c-0.136-0.464 0.112-0.944 0.554-1.074s0.91 0.142 1.046 0.605z"></path>
<path fill="#ec1aff" style="fill: var(--color7, #ec1aff)" d="M13.807 6.092c0.136 0.464-0.112 0.944-0.554 1.074s-0.91-0.142-1.046-0.606c-0.136-0.464 0.112-0.944 0.554-1.074s0.91 0.142 1.046 0.606z"></path>
<path fill="#ec1aff" style="fill: var(--color7, #ec1aff)" d="M17.907 20.099c0.136 0.464-0.112 0.944-0.554 1.074s-0.91-0.142-1.046-0.605c-0.136-0.464 0.112-0.944 0.554-1.074s0.91 0.142 1.046 0.605z"></path>
<path fill="#ec1aff" style="fill: var(--color7, #ec1aff)" d="M25.768 2.591c0.136 0.464-0.112 0.944-0.554 1.074s-0.91-0.142-1.046-0.606c-0.136-0.464 0.112-0.944 0.554-1.074s0.91 0.142 1.046 0.605z"></path>
<path fill="#ec1aff" style="fill: var(--color7, #ec1aff)" d="M29.869 16.597c0.136 0.464-0.112 0.944-0.554 1.074s-0.91-0.142-1.046-0.605c-0.136-0.464 0.112-0.944 0.554-1.074s0.91 0.142 1.046 0.605z"></path>
<path fill="#ec1aff" style="fill: var(--color7, #ec1aff)" d="M3.896 16.598c0.136 0.464-0.112 0.944-0.554 1.074s-0.91-0.142-1.046-0.605c-0.136-0.464 0.112-0.944 0.554-1.074s0.91 0.142 1.046 0.605z"></path>
<path fill="#ec1aff" style="fill: var(--color7, #ec1aff)" d="M7.996 30.604c0.136 0.464-0.112 0.944-0.554 1.074s-0.91-0.142-1.046-0.605c-0.136-0.464 0.112-0.944 0.554-1.074s0.91 0.142 1.046 0.605z"></path>
<path fill="#ec1aff" style="fill: var(--color7, #ec1aff)" d="M15.857 13.096c0.136 0.464-0.112 0.944-0.554 1.074s-0.91-0.142-1.046-0.605c-0.136-0.464 0.112-0.944 0.554-1.074s0.91 0.142 1.046 0.605z"></path>
<path fill="#ec1aff" style="fill: var(--color7, #ec1aff)" d="M19.958 27.103c0.136 0.464-0.112 0.944-0.554 1.074s-0.91-0.142-1.046-0.605c-0.136-0.464 0.112-0.944 0.554-1.074s0.91 0.142 1.046 0.605z"></path>
<path fill="#ec1aff" style="fill: var(--color7, #ec1aff)" d="M27.818 9.594c0.136 0.464-0.112 0.944-0.554 1.074s-0.91-0.142-1.046-0.605c-0.136-0.464 0.112-0.944 0.554-1.074s0.91 0.142 1.046 0.605z"></path>
<path fill="#ec1aff" style="fill: var(--color7, #ec1aff)" d="M31.919 23.601c0.136 0.464-0.112 0.944-0.554 1.074s-0.91-0.142-1.046-0.605c-0.136-0.464 0.112-0.944 0.554-1.074s0.91 0.142 1.046 0.605z"></path>
<path fill="#ec1aff" style="fill: var(--color7, #ec1aff)" d="M7.826 7.843c0.136 0.464-0.112 0.944-0.554 1.074s-0.91-0.142-1.046-0.605c-0.136-0.464 0.112-0.944 0.554-1.074s0.91 0.142 1.046 0.606z"></path>
<path fill="#ec1aff" style="fill: var(--color7, #ec1aff)" d="M11.927 21.85c0.136 0.464-0.112 0.944-0.554 1.074s-0.91-0.142-1.046-0.605c-0.136-0.464 0.112-0.944 0.554-1.074s0.91 0.142 1.046 0.605z"></path>
<path fill="#ec1aff" style="fill: var(--color7, #ec1aff)" d="M19.787 4.341c0.136 0.464-0.112 0.944-0.554 1.074s-0.91-0.142-1.046-0.606c-0.136-0.464 0.112-0.944 0.554-1.074s0.91 0.142 1.046 0.606z"></path>
<path fill="#ec1aff" style="fill: var(--color7, #ec1aff)" d="M23.888 18.348c0.136 0.464-0.112 0.944-0.554 1.074s-0.91-0.142-1.046-0.605c-0.136-0.464 0.112-0.944 0.554-1.074s0.91 0.142 1.046 0.605z"></path>
<path fill="#ec1aff" style="fill: var(--color7, #ec1aff)" d="M31.749 0.84c0.136 0.464-0.112 0.944-0.554 1.074s-0.91-0.142-1.046-0.606c-0.136-0.464 0.112-0.944 0.554-1.074s0.91 0.142 1.046 0.606z"></path>
<path fill="#ec1aff" style="fill: var(--color7, #ec1aff)" d="M35.849 14.847c0.136 0.464-0.112 0.944-0.554 1.074s-0.91-0.142-1.046-0.605c-0.136-0.464 0.112-0.944 0.554-1.074s0.91 0.142 1.046 0.605z"></path>
<path fill="#ec1aff" style="fill: var(--color7, #ec1aff)" d="M9.876 14.847c0.136 0.464-0.112 0.944-0.554 1.074s-0.91-0.142-1.046-0.605c-0.136-0.464 0.112-0.944 0.554-1.074s0.91 0.142 1.046 0.605z"></path>
<path fill="#ec1aff" style="fill: var(--color7, #ec1aff)" d="M13.977 28.854c0.136 0.464-0.112 0.944-0.554 1.074s-0.91-0.142-1.046-0.605c-0.136-0.464 0.112-0.944 0.554-1.074s0.91 0.142 1.046 0.605z"></path>
<path fill="#ec1aff" style="fill: var(--color7, #ec1aff)" d="M21.838 11.345c0.136 0.464-0.112 0.944-0.554 1.074s-0.91-0.142-1.046-0.605c-0.136-0.464 0.112-0.944 0.554-1.074s0.91 0.142 1.046 0.605z"></path>
<path fill="#ec1aff" style="fill: var(--color7, #ec1aff)" d="M25.938 25.352c0.136 0.464-0.112 0.944-0.554 1.074s-0.91-0.142-1.046-0.605c-0.136-0.464 0.112-0.944 0.554-1.074s0.91 0.142 1.046 0.605z"></path>
<path fill="#ec1aff" style="fill: var(--color7, #ec1aff)" d="M33.799 7.843c0.136 0.464-0.112 0.944-0.554 1.074s-0.91-0.142-1.046-0.605c-0.136-0.464 0.112-0.944 0.554-1.074s0.91 0.142 1.046 0.606z"></path>
<path fill="#ec1aff" style="fill: var(--color7, #ec1aff)" d="M37.899 21.85c0.136 0.464-0.112 0.944-0.554 1.074s-0.91-0.142-1.046-0.605c-0.136-0.464 0.112-0.944 0.554-1.074s0.91 0.142 1.046 0.605z"></path>
</symbol>
<symbol id="icon-Ellipse-88" viewBox="0 0 32 32">
<path d="M22.986 14.648c0 3.858-3.128 6.986-6.986 6.986s-6.986-3.128-6.986-6.986c0-3.858 3.128-6.986 6.986-6.986s6.986 3.128 6.986 6.986z"></path>
</symbol>
<symbol id="icon-Vector" viewBox="0 0 32 32">
<path fill="#f9c651" style="fill: var(--color8, #f9c651)" d="M14.406 1.452c0.652-1.321 2.536-1.321 3.188 0l3.486 7.062c0.259 0.524 0.759 0.888 1.337 0.972l7.798 1.14c1.458 0.213 2.039 2.005 0.983 3.033l-5.64 5.493c-0.419 0.408-0.611 0.997-0.512 1.574l1.331 7.759c0.249 1.452-1.275 2.56-2.58 1.874l-6.971-3.666c-0.518-0.273-1.137-0.273-1.655 0l-6.971 3.666c-1.304 0.686-2.829-0.421-2.58-1.874l1.331-7.759c0.099-0.577-0.092-1.166-0.512-1.574l-5.64-5.493c-1.055-1.028-0.474-2.82 0.983-3.033l7.798-1.14c0.578-0.085 1.078-0.448 1.337-0.972l3.486-7.062z"></path>
</symbol>
<symbol id="icon-mail" viewBox="0 0 31 32">
<path stroke-linejoin="round" stroke-linecap="round" stroke-miterlimit="4" stroke-width="2.56" d="M5.12 5.152h20.48c1.408 0 2.56 1.152 2.56 2.56v15.36c0 1.408-1.152 2.56-2.56 2.56h-20.48c-1.408 0-2.56-1.152-2.56-2.56v-15.36c0-1.408 1.152-2.56 2.56-2.56z"></path>
<path stroke-linejoin="round" stroke-linecap="round" stroke-miterlimit="4" stroke-width="2.56" d="M28.16 7.713l-12.8 8.96-12.8-8.96"></path>
</symbol>
<symbol id="icon-Vector1" viewBox="0 0 19 32">
<path stroke-linejoin="round" stroke-linecap="round" stroke-miterlimit="4" stroke-width="2.9091" d="M17.455 1.455h-4.364c-1.929 0-3.779 0.766-5.143 2.13s-2.13 3.214-2.13 5.143v4.364h-4.364v5.818h4.364v11.636h5.818v-11.636h4.364l1.455-5.818h-5.818v-4.364c0-0.386 0.153-0.756 0.426-1.029s0.643-0.426 1.029-0.426h4.364v-5.818z"></path>
</symbol>
<symbol id="icon-linkedin" viewBox="0 0 31 32">
<path stroke-linejoin="round" stroke-linecap="round" stroke-miterlimit="4" stroke-width="2.56" d="M20.48 10.273c2.037 0 3.99 0.809 5.431 2.249s2.249 3.394 2.249 5.431v8.96h-5.12v-8.96c0-0.679-0.27-1.33-0.75-1.81s-1.131-0.75-1.81-0.75c-0.679 0-1.33 0.27-1.81 0.75s-0.75 1.131-0.75 1.81v8.96h-5.12v-8.96c0-2.037 0.809-3.99 2.249-5.431s3.394-2.249 5.431-2.249v0z"></path>
<path stroke-linejoin="round" stroke-linecap="round" stroke-miterlimit="4" stroke-width="2.56" d="M7.68 11.553h-5.12v15.36h5.12v-15.36z"></path>
<path stroke-linejoin="round" stroke-linecap="round" stroke-miterlimit="4" stroke-width="2.56" d="M5.12 7.713c1.414 0 2.56-1.146 2.56-2.56s-1.146-2.56-2.56-2.56c-1.414 0-2.56 1.146-2.56 2.56s1.146 2.56 2.56 2.56z"></path>
</symbol>
<symbol id="icon-twitter" viewBox="0 0 31 32">
<path stroke-linejoin="round" stroke-linecap="round" stroke-miterlimit="4" stroke-width="2.56" d="M29.44 3.873c-1.226 0.865-2.583 1.526-4.019 1.958-0.771-0.886-1.795-1.515-2.935-1.8s-2.339-0.213-3.437 0.205c-1.097 0.419-2.040 1.165-2.7 2.137s-1.005 2.123-0.989 3.298v1.28c-2.249 0.058-4.478-0.441-6.488-1.452s-3.738-2.505-5.032-4.346c0 0-5.12 11.52 6.4 16.64-2.636 1.789-5.776 2.687-8.96 2.56 11.52 6.4 25.6 0 25.6-14.72-0.001-0.357-0.035-0.712-0.102-1.062 1.306-1.288 2.228-2.915 2.662-4.698v0z"></path>
</symbol>
<symbol id="icon-instagram" viewBox="0 0 31 32">
<path stroke-linejoin="round" stroke-linecap="round" stroke-miterlimit="4" stroke-width="2.56" d="M21.76 2.592h-12.8c-3.535 0-6.4 2.865-6.4 6.4v12.8c0 3.535 2.865 6.4 6.4 6.4h12.8c3.535 0 6.4-2.865 6.4-6.4v-12.8c0-3.535-2.865-6.4-6.4-6.4z"></path>
<path stroke-linejoin="round" stroke-linecap="round" stroke-miterlimit="4" stroke-width="2.56" d="M20.48 14.586c0.158 1.065-0.024 2.153-0.52 3.109s-1.281 1.731-2.243 2.215c-0.962 0.484-2.052 0.653-3.115 0.482s-2.045-0.673-2.807-1.435-1.264-1.744-1.435-2.807c-0.171-1.063-0.003-2.153 0.482-3.115s1.259-1.747 2.215-2.243c0.956-0.496 2.044-0.678 3.109-0.52 1.087 0.161 2.093 0.667 2.869 1.444s1.283 1.783 1.444 2.869z"></path>
<path stroke-linejoin="round" stroke-linecap="round" stroke-miterlimit="4" stroke-width="2.56" d="M22.4 8.352h0.013"></path>
</symbol>
<symbol id="icon-icon-send" viewBox="0 0 31 32">
<path fill="#fff" style="fill: var(--color9, #fff)" d="M30.72 0.057l-30.72 17.274 9.818 3.635 15.142-14.191-11.518 15.533 0.009 0.004-0.012-0.004v8.459l5.506-6.421 6.974 2.582 4.8-26.871z"></path>
</symbol>
<symbol id="icon-settings" viewBox="0 0 32 32">
<path stroke-linejoin="round" stroke-linecap="round" stroke-miterlimit="4" stroke-width="2.2857" d="M16 20c2.209 0 4-1.791 4-4s-1.791-4-4-4c-2.209 0-4 1.791-4 4s1.791 4 4 4z"></path>
<path stroke-linejoin="round" stroke-linecap="round" stroke-miterlimit="4" stroke-width="2.2857" d="M25.867 20c-0.178 0.402-0.23 0.848-0.152 1.281s0.285 0.832 0.592 1.146l0.080 0.080c0.248 0.248 0.445 0.542 0.579 0.866s0.203 0.671 0.203 1.021c0 0.35-0.069 0.697-0.203 1.021s-0.331 0.618-0.579 0.866c-0.248 0.248-0.542 0.445-0.866 0.579s-0.671 0.203-1.021 0.203c-0.35 0-0.697-0.069-1.021-0.203s-0.618-0.331-0.866-0.579l-0.080-0.080c-0.314-0.307-0.713-0.514-1.146-0.592s-0.879-0.026-1.281 0.152c-0.394 0.169-0.731 0.45-0.968 0.807s-0.364 0.777-0.366 1.206v0.227c0 0.707-0.281 1.386-0.781 1.886s-1.178 0.781-1.886 0.781c-0.707 0-1.386-0.281-1.886-0.781s-0.781-1.178-0.781-1.886v-0.12c-0.010-0.441-0.153-0.869-0.41-1.228s-0.616-0.633-1.030-0.785c-0.402-0.178-0.848-0.23-1.281-0.152s-0.832 0.285-1.146 0.592l-0.080 0.080c-0.248 0.248-0.542 0.445-0.866 0.579s-0.671 0.203-1.021 0.203c-0.35 0-0.697-0.069-1.021-0.203s-0.618-0.331-0.865-0.579c-0.248-0.248-0.445-0.542-0.579-0.866s-0.203-0.671-0.203-1.021c0-0.35 0.069-0.697 0.203-1.021s0.331-0.618 0.579-0.866l0.080-0.080c0.307-0.314 0.514-0.713 0.592-1.146s0.025-0.879-0.152-1.281c-0.169-0.394-0.45-0.731-0.807-0.968s-0.777-0.364-1.206-0.366h-0.227c-0.707 0-1.386-0.281-1.886-0.781s-0.781-1.178-0.781-1.886c0-0.707 0.281-1.386 0.781-1.886s1.178-0.781 1.886-0.781h0.12c0.441-0.010 0.869-0.153 1.228-0.41s0.633-0.616 0.785-1.030c0.178-0.402 0.23-0.848 0.152-1.281s-0.285-0.832-0.592-1.146l-0.080-0.080c-0.248-0.248-0.445-0.542-0.579-0.866s-0.203-0.671-0.203-1.021c0-0.35 0.069-0.697 0.203-1.021s0.331-0.618 0.579-0.865c0.248-0.248 0.542-0.445 0.865-0.579s0.671-0.203 1.021-0.203c0.35 0 0.697 0.069 1.021 0.203s0.618 0.331 0.866 0.579l0.080 0.080c0.314 0.307 0.713 0.514 1.146 0.592s0.879 0.025 1.281-0.152h0.107c0.394-0.169 0.731-0.45 0.968-0.807s0.364-0.777 0.366-1.206v-0.227c0-0.707 0.281-1.386 0.781-1.886s1.178-0.781 1.886-0.781c0.707 0 1.386 0.281 1.886 0.781s0.781 1.178 0.781 1.886v0.12c0.002 0.429 0.129 0.848 0.366 1.206s0.573 0.638 0.968 0.807c0.402 0.178 0.848 0.23 1.281 0.152s0.832-0.285 1.146-0.592l0.080-0.080c0.248-0.248 0.542-0.445 0.866-0.579s0.671-0.203 1.021-0.203c0.35 0 0.697 0.069 1.021 0.203s0.618 0.331 0.866 0.579c0.248 0.248 0.445 0.542 0.579 0.865s0.203 0.671 0.203 1.021c0 0.35-0.069 0.697-0.203 1.021s-0.331 0.618-0.579 0.866l-0.080 0.080c-0.307 0.314-0.514 0.713-0.592 1.146s-0.026 0.879 0.152 1.281v0.107c0.169 0.394 0.45 0.731 0.807 0.968s0.777 0.364 1.206 0.366h0.227c0.707 0 1.386 0.281 1.886 0.781s0.781 1.178 0.781 1.886c0 0.707-0.281 1.386-0.781 1.886s-1.178 0.781-1.886 0.781h-0.12c-0.429 0.002-0.848 0.129-1.206 0.366s-0.638 0.573-0.807 0.968v0z"></path>
</symbol>
<symbol id="icon-monitor" viewBox="0 0 32 32">
<path stroke-linejoin="round" stroke-linecap="round" stroke-miterlimit="4" stroke-width="2.2857" d="M26.667 4h-21.333c-1.473 0-2.667 1.194-2.667 2.667v13.333c0 1.473 1.194 2.667 2.667 2.667h21.333c1.473 0 2.667-1.194 2.667-2.667v-13.333c0-1.473-1.194-2.667-2.667-2.667z"></path>
<path stroke-linejoin="round" stroke-linecap="round" stroke-miterlimit="4" stroke-width="2.2857" d="M10.667 28h10.667"></path>
<path stroke-linejoin="round" stroke-linecap="round" stroke-miterlimit="4" stroke-width="2.2857" d="M16 22.667v5.333"></path>
</symbol>
<symbol id="icon-tv" viewBox="0 0 32 32">
<path stroke-linejoin="round" stroke-linecap="round" stroke-miterlimit="4" stroke-width="2.2857" d="M26.667 9.333h-21.333c-1.473 0-2.667 1.194-2.667 2.667v14.667c0 1.473 1.194 2.667 2.667 2.667h21.333c1.473 0 2.667-1.194 2.667-2.667v-14.667c0-1.473-1.194-2.667-2.667-2.667z"></path>
<path stroke-linejoin="round" stroke-linecap="round" stroke-miterlimit="4" stroke-width="2.2857" d="M22.667 2.667l-6.667 6.667-6.667-6.667"></path>
</symbol>
<symbol id="icon-pen-tool" viewBox="0 0 32 32">
<path stroke-linejoin="round" stroke-linecap="round" stroke-miterlimit="4" stroke-width="2.2857" d="M16 25.333l9.333-9.333 4 4-9.333 9.333-4-4z"></path>
<path stroke-linejoin="round" stroke-linecap="round" stroke-miterlimit="4" stroke-width="2.2857" d="M24 17.333l-2-10-19.333-4.667 4.667 19.333 10 2 6.667-6.667z"></path>
<path stroke-linejoin="round" stroke-linecap="round" stroke-miterlimit="4" stroke-width="2.2857" d="M2.667 2.667l10.115 10.115"></path>
<path stroke-linejoin="round" stroke-linecap="round" stroke-miterlimit="4" stroke-width="2.2857" d="M14.667 17.333c1.473 0 2.667-1.194 2.667-2.667s-1.194-2.667-2.667-2.667c-1.473 0-2.667 1.194-2.667 2.667s1.194 2.667 2.667 2.667z"></path>
</symbol>
</defs>
</svg>
