<svg aria-hidden="true" style="position: absolute; width: 0; height: 0; overflow: hidden;" version="1.1" xmlns="http://www.w3.org/2000/svg" xmlns:xlink="http://www.w3.org/1999/xlink">
<defs>
<symbol id="icon-arrow" viewBox="0 0 32 32">
<path fill="none" stroke="#e2e2e2" style="stroke: var(--color1, #e2e2e2)" stroke-linejoin="round" stroke-linecap="round" stroke-miterlimit="4" stroke-width="2.6667" d="M20 24l8-8-8-8"></path>
<path fill="none" stroke="#e2e2e2" style="stroke: var(--color1, #e2e2e2)" stroke-linejoin="round" stroke-linecap="round" stroke-miterlimit="4" stroke-width="2.6667" d="M4 16h22.667"></path>
<path fill="none" stroke="#e2e2e2" style="stroke: var(--color1, #e2e2e2)" stroke-linejoin="round" stroke-linecap="round" stroke-miterlimit="4" stroke-width="2.6667" d="M28 16h-1.333"></path>
</symbol>
<symbol id="icon-groups" viewBox="0 0 44 32">
<path fill="#ec1aff" style="fill: var(--color2, #ec1aff)" d="M2.207 1.683c0.008 0.635-0.476 1.157-1.081 1.165s-1.103-0.501-1.111-1.136c-0.008-0.635 0.476-1.157 1.081-1.165s1.103 0.501 1.111 1.136z"></path>
<path fill="#ec1aff" style="fill: var(--color2, #ec1aff)" d="M2.456 20.875c0.008 0.635-0.476 1.157-1.081 1.165s-1.103-0.501-1.111-1.136c-0.008-0.635 0.476-1.157 1.081-1.165s1.103 0.501 1.111 1.136z"></path>
<path fill="#ec1aff" style="fill: var(--color2, #ec1aff)" d="M18.595 1.47c0.008 0.635-0.476 1.157-1.081 1.165s-1.102-0.501-1.111-1.136c-0.008-0.635 0.476-1.157 1.081-1.165s1.102 0.501 1.111 1.136z"></path>
<path fill="#ec1aff" style="fill: var(--color2, #ec1aff)" d="M18.845 20.662c0.008 0.635-0.476 1.157-1.081 1.165s-1.102-0.501-1.111-1.136c-0.008-0.635 0.476-1.157 1.081-1.165s1.102 0.501 1.111 1.136z"></path>
<path fill="#ec1aff" style="fill: var(--color2, #ec1aff)" d="M34.984 1.257c0.008 0.635-0.476 1.157-1.081 1.165s-1.102-0.501-1.111-1.136c-0.008-0.635 0.476-1.157 1.081-1.165s1.102 0.501 1.111 1.136z"></path>
<path fill="#ec1aff" style="fill: var(--color2, #ec1aff)" d="M35.234 20.449c0.008 0.635-0.476 1.157-1.081 1.165s-1.102-0.501-1.111-1.136c-0.008-0.635 0.476-1.157 1.081-1.165s1.102 0.501 1.111 1.136z"></path>
<path fill="#ec1aff" style="fill: var(--color2, #ec1aff)" d="M2.331 11.279c0.008 0.635-0.476 1.157-1.081 1.165s-1.103-0.501-1.111-1.136c-0.008-0.635 0.476-1.157 1.081-1.165s1.103 0.501 1.111 1.136z"></path>
<path fill="#ec1aff" style="fill: var(--color2, #ec1aff)" d="M2.581 30.47c0.008 0.635-0.476 1.157-1.081 1.165s-1.103-0.501-1.111-1.136c-0.008-0.635 0.476-1.157 1.081-1.165s1.103 0.501 1.111 1.136z"></path>
<path fill="#ec1aff" style="fill: var(--color2, #ec1aff)" d="M18.72 11.066c0.008 0.635-0.476 1.157-1.081 1.165s-1.102-0.501-1.111-1.136c-0.008-0.635 0.476-1.157 1.081-1.165s1.102 0.501 1.111 1.136z"></path>
<path fill="#ec1aff" style="fill: var(--color2, #ec1aff)" d="M18.97 30.257c0.008 0.635-0.476 1.157-1.081 1.165s-1.102-0.501-1.111-1.136c-0.008-0.635 0.476-1.157 1.081-1.165s1.102 0.501 1.111 1.136z"></path>
<path fill="#ec1aff" style="fill: var(--color2, #ec1aff)" d="M35.109 10.853c0.008 0.635-0.476 1.157-1.081 1.165s-1.102-0.501-1.111-1.136c-0.008-0.635 0.476-1.157 1.081-1.165s1.102 0.501 1.111 1.136z"></path>
<path fill="#ec1aff" style="fill: var(--color2, #ec1aff)" d="M35.358 30.044c0.008 0.635-0.476 1.157-1.081 1.165s-1.102-0.501-1.111-1.136c-0.008-0.635 0.476-1.157 1.081-1.165s1.102 0.501 1.111 1.136z"></path>
<path fill="#ec1aff" style="fill: var(--color2, #ec1aff)" d="M10.401 1.577c0.008 0.635-0.476 1.157-1.081 1.165s-1.103-0.501-1.111-1.136c-0.008-0.635 0.476-1.157 1.081-1.165s1.103 0.501 1.111 1.136z"></path>
<path fill="#ec1aff" style="fill: var(--color2, #ec1aff)" d="M10.65 20.768c0.008 0.635-0.476 1.157-1.081 1.165s-1.103-0.501-1.111-1.136c-0.008-0.635 0.476-1.157 1.081-1.165s1.103 0.501 1.111 1.136z"></path>
<path fill="#ec1aff" style="fill: var(--color2, #ec1aff)" d="M26.79 1.364c0.008 0.635-0.476 1.157-1.081 1.165s-1.102-0.501-1.111-1.136c-0.008-0.635 0.476-1.157 1.081-1.165s1.102 0.501 1.111 1.136z"></path>
<path fill="#ec1aff" style="fill: var(--color2, #ec1aff)" d="M27.039 20.555c0.008 0.635-0.476 1.157-1.081 1.165s-1.102-0.501-1.111-1.136c-0.008-0.635 0.476-1.157 1.081-1.165s1.102 0.501 1.111 1.136z"></path>
<path fill="#ec1aff" style="fill: var(--color2, #ec1aff)" d="M43.178 1.15c0.008 0.635-0.476 1.157-1.081 1.165s-1.102-0.501-1.111-1.136c-0.008-0.635 0.476-1.157 1.081-1.165s1.102 0.501 1.111 1.136z"></path>
<path fill="#ec1aff" style="fill: var(--color2, #ec1aff)" d="M43.428 20.342c0.008 0.635-0.476 1.157-1.081 1.165s-1.102-0.501-1.111-1.136c-0.008-0.635 0.476-1.157 1.081-1.165s1.102 0.501 1.111 1.136z"></path>
<path fill="#ec1aff" style="fill: var(--color2, #ec1aff)" d="M10.526 11.172c0.008 0.635-0.476 1.157-1.081 1.165s-1.102-0.501-1.111-1.136c-0.008-0.635 0.476-1.157 1.081-1.165s1.102 0.501 1.111 1.136z"></path>
<path fill="#ec1aff" style="fill: var(--color2, #ec1aff)" d="M10.775 30.364c0.008 0.635-0.476 1.157-1.081 1.165s-1.103-0.501-1.111-1.136c-0.008-0.635 0.476-1.157 1.081-1.165s1.103 0.501 1.111 1.136z"></path>
<path fill="#ec1aff" style="fill: var(--color2, #ec1aff)" d="M26.915 10.959c0.008 0.635-0.476 1.157-1.081 1.165s-1.102-0.501-1.111-1.136c-0.008-0.635 0.476-1.157 1.081-1.165s1.102 0.501 1.111 1.136z"></path>
<path fill="#ec1aff" style="fill: var(--color2, #ec1aff)" d="M27.164 30.151c0.008 0.635-0.476 1.157-1.081 1.165s-1.102-0.501-1.111-1.136c-0.008-0.635 0.476-1.157 1.081-1.165s1.102 0.501 1.111 1.136z"></path>
<path fill="#ec1aff" style="fill: var(--color2, #ec1aff)" d="M43.303 10.746c0.008 0.635-0.476 1.157-1.081 1.165s-1.102-0.501-1.111-1.136c-0.008-0.635 0.476-1.157 1.081-1.165s1.102 0.501 1.111 1.136z"></path>
<path fill="#ec1aff" style="fill: var(--color2, #ec1aff)" d="M43.553 29.938c0.008 0.635-0.476 1.157-1.081 1.165s-1.102-0.501-1.111-1.136c-0.008-0.635 0.476-1.157 1.081-1.165s1.102 0.501 1.111 1.136z"></path>
</symbol>
<symbol id="icon-groups-2" viewBox="0 0 45 32">
<path fill="#ff6e1a" style="fill: var(--color3, #ff6e1a)" d="M2.254 1.183c0 0.653-0.504 1.183-1.127 1.183s-1.127-0.53-1.127-1.183c0-0.653 0.504-1.183 1.127-1.183s1.127 0.53 1.127 1.183z"></path>
<path fill="#ff6e1a" style="fill: var(--color3, #ff6e1a)" d="M2.254 20.917c0 0.653-0.504 1.183-1.127 1.183s-1.127-0.53-1.127-1.183c0-0.653 0.504-1.183 1.127-1.183s1.127 0.53 1.127 1.183z"></path>
<path fill="#ff6e1a" style="fill: var(--color3, #ff6e1a)" d="M19.105 1.183c0 0.653-0.504 1.183-1.127 1.183s-1.127-0.53-1.127-1.183c0-0.653 0.504-1.183 1.127-1.183s1.127 0.53 1.127 1.183z"></path>
<path fill="#ff6e1a" style="fill: var(--color3, #ff6e1a)" d="M19.105 20.917c0 0.653-0.504 1.183-1.127 1.183s-1.127-0.53-1.127-1.183c0-0.653 0.504-1.183 1.127-1.183s1.127 0.53 1.127 1.183z"></path>
<path fill="#ff6e1a" style="fill: var(--color3, #ff6e1a)" d="M35.957 1.183c0 0.653-0.504 1.183-1.127 1.183s-1.127-0.53-1.127-1.183c0-0.653 0.504-1.183 1.127-1.183s1.127 0.53 1.127 1.183z"></path>
<path fill="#ff6e1a" style="fill: var(--color3, #ff6e1a)" d="M35.957 20.917c0 0.653-0.504 1.183-1.127 1.183s-1.127-0.53-1.127-1.183c0-0.653 0.504-1.183 1.127-1.183s1.127 0.53 1.127 1.183z"></path>
<path fill="#ff6e1a" style="fill: var(--color3, #ff6e1a)" d="M2.254 11.050c0 0.653-0.504 1.183-1.127 1.183s-1.127-0.53-1.127-1.183c0-0.653 0.504-1.183 1.127-1.183s1.127 0.53 1.127 1.183z"></path>
<path fill="#ff6e1a" style="fill: var(--color3, #ff6e1a)" d="M2.254 30.784c0 0.653-0.504 1.183-1.127 1.183s-1.127-0.53-1.127-1.183c0-0.653 0.504-1.183 1.127-1.183s1.127 0.53 1.127 1.183z"></path>
<path fill="#ff6e1a" style="fill: var(--color3, #ff6e1a)" d="M19.105 11.050c0 0.653-0.504 1.183-1.127 1.183s-1.127-0.53-1.127-1.183c0-0.653 0.504-1.183 1.127-1.183s1.127 0.53 1.127 1.183z"></path>
<path fill="#ff6e1a" style="fill: var(--color3, #ff6e1a)" d="M19.105 30.784c0 0.653-0.504 1.183-1.127 1.183s-1.127-0.53-1.127-1.183c0-0.653 0.504-1.183 1.127-1.183s1.127 0.53 1.127 1.183z"></path>
<path fill="#ff6e1a" style="fill: var(--color3, #ff6e1a)" d="M35.957 11.050c0 0.653-0.504 1.183-1.127 1.183s-1.127-0.53-1.127-1.183c0-0.653 0.504-1.183 1.127-1.183s1.127 0.53 1.127 1.183z"></path>
<path fill="#ff6e1a" style="fill: var(--color3, #ff6e1a)" d="M35.957 30.784c0 0.653-0.504 1.183-1.127 1.183s-1.127-0.53-1.127-1.183c0-0.653 0.504-1.183 1.127-1.183s1.127 0.53 1.127 1.183z"></path>
<path fill="#ff6e1a" style="fill: var(--color3, #ff6e1a)" d="M10.679 1.183c0 0.653-0.504 1.183-1.127 1.183s-1.127-0.53-1.127-1.183c0-0.653 0.504-1.183 1.127-1.183s1.127 0.53 1.127 1.183z"></path>
<path fill="#ff6e1a" style="fill: var(--color3, #ff6e1a)" d="M10.679 20.917c0 0.653-0.504 1.183-1.127 1.183s-1.127-0.53-1.127-1.183c0-0.653 0.504-1.183 1.127-1.183s1.127 0.53 1.127 1.183z"></path>
<path fill="#ff6e1a" style="fill: var(--color3, #ff6e1a)" d="M27.531 1.183c0 0.653-0.504 1.183-1.127 1.183s-1.127-0.53-1.127-1.183c0-0.653 0.504-1.183 1.127-1.183s1.127 0.53 1.127 1.183z"></path>
<path fill="#ff6e1a" style="fill: var(--color3, #ff6e1a)" d="M27.531 20.917c0 0.653-0.504 1.183-1.127 1.183s-1.127-0.53-1.127-1.183c0-0.653 0.504-1.183 1.127-1.183s1.127 0.53 1.127 1.183z"></path>
<path fill="#ff6e1a" style="fill: var(--color3, #ff6e1a)" d="M44.383 1.183c0 0.653-0.504 1.183-1.127 1.183s-1.127-0.53-1.127-1.183c0-0.653 0.504-1.183 1.127-1.183s1.127 0.53 1.127 1.183z"></path>
<path fill="#ff6e1a" style="fill: var(--color3, #ff6e1a)" d="M44.383 20.917c0 0.653-0.504 1.183-1.127 1.183s-1.127-0.53-1.127-1.183c0-0.653 0.504-1.183 1.127-1.183s1.127 0.53 1.127 1.183z"></path>
<path fill="#ff6e1a" style="fill: var(--color3, #ff6e1a)" d="M10.679 11.050c0 0.653-0.504 1.183-1.127 1.183s-1.127-0.53-1.127-1.183c0-0.653 0.504-1.183 1.127-1.183s1.127 0.53 1.127 1.183z"></path>
<path fill="#ff6e1a" style="fill: var(--color3, #ff6e1a)" d="M10.679 30.784c0 0.653-0.504 1.183-1.127 1.183s-1.127-0.53-1.127-1.183c0-0.653 0.504-1.183 1.127-1.183s1.127 0.53 1.127 1.183z"></path>
<path fill="#ff6e1a" style="fill: var(--color3, #ff6e1a)" d="M27.531 11.050c0 0.653-0.504 1.183-1.127 1.183s-1.127-0.53-1.127-1.183c0-0.653 0.504-1.183 1.127-1.183s1.127 0.53 1.127 1.183z"></path>
<path fill="#ff6e1a" style="fill: var(--color3, #ff6e1a)" d="M27.531 30.784c0 0.653-0.504 1.183-1.127 1.183s-1.127-0.53-1.127-1.183c0-0.653 0.504-1.183 1.127-1.183s1.127 0.53 1.127 1.183z"></path>
<path fill="#ff6e1a" style="fill: var(--color3, #ff6e1a)" d="M44.383 11.050c0 0.653-0.504 1.183-1.127 1.183s-1.127-0.53-1.127-1.183c0-0.653 0.504-1.183 1.127-1.183s1.127 0.53 1.127 1.183z"></path>
<path fill="#ff6e1a" style="fill: var(--color3, #ff6e1a)" d="M44.383 30.784c0 0.653-0.504 1.183-1.127 1.183s-1.127-0.53-1.127-1.183c0-0.653 0.504-1.183 1.127-1.183s1.127 0.53 1.127 1.183z"></path>
</symbol>
<symbol id="icon-star" viewBox="0 0 32 32">
<path fill="#f9c651" style="fill: var(--color4, #f9c651)" d="M14.406 1.452c0.652-1.321 2.536-1.321 3.188 0l3.486 7.062c0.259 0.524 0.759 0.888 1.337 0.972l7.798 1.14c1.458 0.213 2.039 2.005 0.983 3.033l-5.64 5.493c-0.419 0.408-0.611 0.997-0.512 1.574l1.331 7.759c0.249 1.452-1.275 2.56-2.58 1.874l-6.971-3.666c-0.518-0.273-1.137-0.273-1.655 0l-6.971 3.666c-1.304 0.686-2.829-0.421-2.58-1.874l1.331-7.759c0.099-0.577-0.092-1.166-0.512-1.574l-5.64-5.493c-1.055-1.028-0.474-2.82 0.983-3.033l7.798-1.14c0.578-0.085 1.078-0.448 1.337-0.972l3.486-7.062z"></path>
</symbol>
</defs>
</svg>
